<!-- icon666.com - MILLIONS vector ICONS FREE --><svg version="1.1" id="Capa_1" xmlns="http://www.w3.org/2000/svg" xmlns:xlink="http://www.w3.org/1999/xlink" x="0px" y="0px" viewBox="0 0 512.001 512.001" style="enable-background:new 0 0 512.001 512.001;" xml:space="preserve"><path style="fill:#FFE18D;" d="M6.153,340.471c5.123-16.703,16.815-31.21,26.559-45.471c9.795-14.335,22.575-24.171,34.58-36.379 c22.073-22.445,49.717-39.394,73.822-59.654c15.158-12.74,30.416-24.648,47.283-35.188c22.378-13.984,45.804-25.157,67.954-39.384 c9.498-6.101,18.593-11.681,27.488-18.523c8.99-6.916,20.354-10.532,30.586-15.127c8.078-3.628,15.736-7.787,24.126-10.614 c15.735-5.302,30.883-10.898,47.741-10.576c15.569,0.298,33.865,6.005,47.948,12.194c4.877,2.144,10.154,3.068,14.912,5.245 c4.515,2.066,8.58,5.766,12.558,8.699c9.006,6.639,18.123,12.472,26.355,20.055c10.543,9.711,15.381,13.928,14.407,28.713 c-0.93,14.113-6.762,26.984-15.736,37.942c-5.466,6.674-10.826,11.933-17.29,17.6c-9.345,8.192-17.046,18.094-26.399,26.337 c-18.961,16.712-36.483,35.053-54.343,52.918c-6.677,6.679-13.834,12.848-20.953,19.047c-6.854,5.968-11.796,12.256-17.836,18.934 c-12.018,13.288-26.354,24.168-39.43,36.348c-12.957,12.069-26.475,22.584-41.205,32.316c-12.522,8.272-22.412,19.486-33.888,28.975 c-9.315,7.702-20.651,19.981-33.284,21.471c-15.987,1.885-32.396-5.869-47.964-8.449c-19.783-3.278-39.816-7.644-58.212-15.606 c-8.897-3.851-17.953-5.259-26.198-10.651c-5.868-3.837-11.511-8.201-16.431-13.207c-4.639-4.72-7.065-12.349-11.529-16.224 c-5.449-4.73-13.044-7.366-18.677-12.343C20.377,357.464,5.061,344.033,6.153,340.471z"></path><g><path style="fill:#F9CD75;" d="M502.985,129.271c-3.105-17.065-20.244-23.955-35.949-21.787 c-12.06,1.664-22.59,9.623-32.916,15.964c-12.633,7.759-21.757,18.13-32.714,27.967c-9.004,8.082-18.92,14.792-27.223,23.678 c-4.365,4.672-8.517,9.492-12.752,14.241c-14.79,5.811-29.482,11.858-43.869,18.593c-43.919-5.818-90.149-6.866-131.627,8.467 c-23.828,8.808-47.721,18.798-70.486,30.073c-24.076,11.924-46.083,27.088-69.248,40.498c-2.315,1.34-0.783,5.093,1.831,4.343 c10.673-3.064,20.071-10.321,29.772-15.582c10.661-5.783,21.177-11.848,31.966-17.393c15.656-8.046,31.819-14.814,48.262-20.912 c0.028,0.002,0.052,0.017,0.08,0.018c14.609,0.626,28.594-5.877,42.495-9.506c15.935-4.16,32.821-4.46,49.201-5.071 c16.044-0.599,32.379-0.966,48.406,0.126c1.696,0.116,3.382,0.264,5.068,0.409c0.052,0.959,0.825,1.898,2.027,1.567 c0.891-0.246,1.776-0.512,2.661-0.775c-0.085,3.042,3.26,6.168,6.944,4.436c2.626-1.234,5.229-2.512,7.839-3.778 c0.953,0.031,1.906,0.067,2.859,0.076c-2.738,2.635-5.497,5.247-8.26,7.854c-5.216-1.69-10.798-2.405-16.546-2.926 c-16.142-1.464-32.315-0.819-48.482-0.216c-3.07,0.114-6.173,0.225-9.292,0.341c-2.77-0.065-5.536-0.135-8.325-0.171 c-0.381-0.005-0.574,0.247-0.604,0.528c-24.893,1.088-50.632,3.242-73.546,12.117c-2.809,1.088-2.761,5.952,0.772,5.704 c18.665-1.307,37.226-3.372,55.85-4.986c-2.352,0.557-4.686,1.13-6.975,1.728c-27.988,7.32-56.92,16.468-79.006,35.876 c-2.931,2.576,0.935,7.676,4.205,5.449c22.206-15.125,48.87-22.266,74.611-28.846c12.178-3.113,24.56-5.406,37.088-6.393 c-0.042,0.033-0.087,0.063-0.123,0.102c-21.199,2.128-42.108,6.69-62.507,14.256c-2.997,1.112-1.82,5.83,1.344,4.873 c19.875-6.007,40.281-9.588,61.002-10.933c13.199-0.857,26.413,0.22,39.607,0.691c-0.962,0.767-1.916,1.542-2.887,2.298 c-11.042,8.599-23.49,18.522-36.596,23.738c-14.708,5.854-31.957,6.434-47.461,8.77c-23.881,3.599-46.28,0.033-70.193,0.033 c-3.792,0-7.63,0.04-11.499,0.135c-32.356,0.797-66.839,5.497-93.768,23.666c-8.963,6.048-25.725,22.131-13.356,32.003 c12.594,10.052,34.255,13.271,49.192,18.23c14.394,4.778,29.605,10.352,42.223,18.799c13.973,9.355,29.132,19.499,45.015,25.101 c25.093,8.851,51.929,25.348,77.006,7.904c11.287-7.851,23.113-15.674,33.277-25.069c36.297-33.552,72.302-67.054,110.319-98.661 c19.09-15.871,37.291-33.102,54.77-50.804c19.384-19.63,41.358-36.742,60.269-56.738 C498.935,172.248,507.369,153.359,502.985,129.271z"></path><path style="fill:#F9CD75;" d="M363.907,177.42c-12.795-6.41-31.36-6.428-45.369-6.014c-16.444,0.486-33.169,3.128-49.301,6.223 c-16.488,3.163-32.843,7.218-48.977,11.847c-6.808,1.953-13.721,3.799-20.186,6.731c-6.809,3.088-12.99,6.708-20.319,8.508 c-2.981,0.732-3.341,5.939,0,6.401c11.601,1.603,23.574-6.158,34.605-9.121c16.256-4.366,32.707-8.083,49.212-11.381 c16.869-3.37,34.139-5.986,51.348-6.678c15.678-0.631,32.547,4.882,47.851,2.171C366.75,185.401,367.427,179.183,363.907,177.42z"></path><path style="fill:#F9CD75;" d="M385.393,142.702c-10.722-5.078-23.36-4.623-34.985-4.198c-14.07,0.515-28.098,2.051-42.058,3.829 c-24.104,3.071-47.817,7.708-69.998,17.951c-3.089,1.426-0.897,6.391,2.296,5.446c23.31-6.897,47.265-9.903,71.406-12.104 c12.164-1.109,24.32-2.297,36.537-2.642c11.82-0.334,24.24,1.453,35.856-1.044C387.643,149.253,388.454,144.152,385.393,142.702z"></path><path style="fill:#F9CD75;" d="M414.165,103.927c-8.686-3.167-18.841-2.045-27.923-1.303c-9.833,0.803-19.667,2.094-29.376,3.852 c-20.282,3.671-39.83,9.92-59.299,16.564c-3.948,1.347-2.376,7.133,1.725,6.255c18.979-4.063,38.044-7.991,57.215-11.038 c9.869-1.569,19.759-2.854,29.735-3.498c9.177-0.592,19.08,0.301,27.923-2.395C418.482,111.048,418.145,105.377,414.165,103.927z"></path></g><path style="fill:#AD514A;" d="M22.94,335.682c-5.221,1.926-10.24,5.05-12.247,10.62c-1.887,5.237-1.77,11.75-0.798,17.189 c3.374,18.891,17.561,29.894,32.42,40.435c17.143,12.16,37.893,20.438,57.521,27.565c22.922,8.324,47.863,15.022,72.364,11.594 c7.969-1.115,21.629-4.093,25.118-12.762c7.078-17.584-1.995-33.511-5.504-50.494c-3.255-15.752-14.868-28.491-26.213-39.32 c-9.03-8.619-18.026-16.683-29.383-22.037c-4.921-2.32-9.385-4.747-14.759-5.979c-7.459-1.71-14.909-1.824-22.493-2.219 c-17.442-0.908-32.651,3.954-48.599,10.245C41.241,324.118,33.118,328.135,22.94,335.682z"></path><path style="fill:#EB3840;" d="M30.342,394.577c1.72-4.9,1.497-10.137,6.249-13.502c4.599-3.257,8.513-0.641,11.461,3.282 c2.421,3.222,3.881,9.004,8.528,8.65c5.206-0.398,9.221-5.392,14.628-3.979c6.56,1.715,7.452,10.55,7.779,16.12 c4.461,0.079,8.217-5.174,13.263-5.073c4.651,0.093,5.363,4.614,5.379,8.791c0.01,2.655-2.065,7.208,0.658,8.573 c2.186,1.096,6.903-2.144,9.227-2.536c2.051-0.347,5.971-0.309,7.605,1.28c2.738,2.662,0.424,8.167,4.977,8.363 c2.846,0.123,5.993-2.701,9.278-2.465c3.025,0.218,4.005,0.996,5.699,3.746c0.588,0.954,1.196,3.794,2.383,4.198 c2.283,0.777,9.009-3.507,11.32-3.963c8.428-1.662,11.85,2.322,13.192,10.128c1.327,7.721-2.809,6.609-9.747,5.561 c-20.63-3.117-40.713-8.137-61.054-12.648c-8.423-1.868-16.566-4.919-24.861-7.275c-6.475-1.839-11.621-3.536-17.09-7.471 C42.191,409.3,35.139,404.401,30.342,394.577z"></path><path style="fill:#5CBF4B;" d="M65.1,315.084c-2.407,2.921-12.093,9.052-4.681,13.046c5.384,2.901,12.692,0.002,17.793-1.789 c11.525-4.046,4.959,14.349,13.986,16.107c6.513,1.268,11.63-2.693,16.93-5.736c6.189-3.554,5.896,5.01,6.489,9.505 c0.52,3.941,0.827,13.721,4.86,15.968c7.381,4.114,13.579-6.299,20.252-6.215c8.528,0.108,6.915,13.41,10.734,18.33 c5.917,7.622,12.594-4.914,17.866-5.419c0.599,4.23,2.944,9.635,7.754,10.184c6.714,0.766,9.044-7.671,7.209-12.859 c-1.958-5.536-8.133-11.32-11.829-15.865c-4.496-5.529-9.519-10.748-15.063-15.212c-12.356-9.95-26.978-18.886-42.609-22.471 c-7.157-1.641-14.516-2.687-21.893-2.11C84.555,311.199,74.91,311.854,65.1,315.084z"></path><g><path style="fill:#FFD45C;" d="M10.067,365.29c0.154-4.618,6.606-10.143,9.761-13.018c3.07-2.798,6.61-5.703,10.836-3.841 c7.708,3.396,2.234,21.984,13.277,20.093c8.489-1.453,15.039-24.307,26.099-17.406c8.247,5.146,0.467,25.63,13.227,23.914 c6.025-0.81,10.36-5.277,16.616-4.913c6.106,0.355,6.393,5.501,5.807,10.462c-0.561,4.745-2.536,14.423,5.642,12.428 c7.453-1.818,13.292-3.275,16.847,5.424c1.782,4.361,2.786,9.059,7.231,11.348c4.333,2.232,8.687,0.732,11.283-3.339 c2.249-3.527,4.202-13.931,10.462-11.999c5.084,1.57,5.504,9.195,11.505,9.783c6.588,0.645,23.391-23.431,26.146-10.102 c2.007,9.712,5.675,21.212,4.222,31.175c-1.458,9.993-6.764,13.405-16.262,14.655c-5.011,0.66-17.93,3.85-20.139-1.834 c-1.839-4.731,0.699-9.522-4.731-12.579c-6.344-3.572-11.691,1.736-17.663,2.807c-6.025,1.081-3.744-3.322-7.583-5.775 c-4.481-2.864-8.629,3.965-13.501,2.08c-3.98-1.54-2.951-7.194-7.275-8.219c-3.679-0.872-10.948,4.577-13.406,0.887 c-2.719-4.083,2.193-10.69-1.786-14.463c-4.877-4.623-13.255-1.244-18.128,1.446c-1.272-1.571-0.232-3.893-0.276-5.797 c-0.069-2.972-1.004-5.26-3.438-7.081c-6.598-4.935-12.135,3.759-18.713,2.175c-6.166-1.485-6.579-9.301-12.258-11.575 c-3.73-1.494-5.115-1.305-7.284,1.622c-2.29,3.09-4.964,6.477-6.645,9.953c-3.057-1.037-5.441-4.498-7.585-6.747 c-2.957-3.102-5.45-6.28-7.247-10.181C12.983,372.058,12.482,367.351,10.067,365.29z"></path><path style="fill:#FFD45C;" d="M108.548,311.544c-3.398,1.316-10.81,5.124-8.462,10.001c1.849,3.841,7.779,3.508,11.128,3.355 c4.811-0.22,12.502-2.617,13.764-8.207c1.035-4.587-3.468-4.613-7.153-5.399C112.322,310.12,109.459,311.085,108.548,311.544z"></path><path style="fill:#FFD45C;" d="M136.225,320.234c-4.208,1.079-6.662,7.355-7.661,11.263c-1.114,4.356,1.146,6.36,5.538,7.085 c4.538,0.749,9.803-2.674,12.232-6.562c1.195-1.913,2.39-5.4,1.011-7.454C145.842,322.326,140.202,320.067,136.225,320.234z"></path><path style="fill:#FFD45C;" d="M158.11,335.682c-2.198,2.455-5.299,9.785-4.119,13.204c0.982,2.844,5.244,5.814,8.139,5.316 c3.974-0.684,7.92-5.014,8.188-9.027C170.589,341.135,161.902,330.348,158.11,335.682z"></path></g><path d="M502.746,118.511c-13.203-16.852-35.038-28.678-53.951-37.964c-21.08-10.349-45.069-19.377-68.95-17.905 c-26.026,1.604-51.022,13.763-73.629,25.881c-55.825,29.921-108.416,64.696-159.355,102.195c-6.217,4.06-12.374,8.208-18.477,12.425 c-23.182,16.018-46.155,33.195-66.234,53.028c-12.014,11.866-23.243,25.195-33.746,38.908c-19.03,22.473-38.08,53.155-22.901,82.759 c21.888,42.691,78.979,63.618,123.428,69.694c24.699,3.376,50.545,3.093,74.06-5.972c22.753-8.771,41.82-25.078,59.68-41.254 c43.353-39.266,87.51-77.673,130.545-117.285c21.088-19.41,41.808-39.235,61.685-59.889c15.789-16.407,33.646-32.643,46.891-51.232 C514.074,154.66,516.318,135.832,502.746,118.511z M13.557,344.416c13.963-9.964,28.256-19.08,44.482-24.916 c-1.198,1.928-1.965,3.848-2.015,5.335c-0.142,4.253,2.844,6.113,6.781,6.608c3.785,0.476,7.538-0.579,11.069-1.747 c2.78-0.92,7.215-2.817,9.467,0.544c1.149,1.713,0.189,6.137,0.556,8.189c1.057,5.897,5.642,9.612,11.834,8.813 c4.586-0.592,7.271-4.747,11.364-5.891c8.193-2.291,5.706,7.151,5.216,12.279c-0.6,6.274,0.255,13.591,7.361,15.518 c8.924,2.42,15.093-9.041,21.716-7.146c4.373,1.251,2.925,2.759,2.98,6.697c0.029,2.068-0.01,4.39,0.667,6.381 c0.936,2.752,2.63,4.877,5.31,6.065c8.716,3.862,12.795-5.268,17.667-10.698c1.926,4.514,0.989,10.49,7.433,11.618 c4.831,0.845,7.666-2.988,9.604-6.892c1.758,3.572,3.329,7.211,4.643,10.904c-2.466,0.298-4.748,1.432-6.884,3.419 c-5.044,4.69-7.972,14.541-15.423,7.542c-7.797-7.325-16.652-9.168-21.954,1.461c-2.376,4.765-4.694,13.241-10.23,6.95 c-3.176-3.609-3.585-9.375-6.639-13.202c-2.596-3.253-5.761-4.571-9.994-4.303c-2.979,0.188-5.996,2.771-8.248,0.779 c-2.066-1.826-0.523-7.793-0.701-10.642c-0.858-13.742-12.298-13.393-21.481-6.754c-3.157,2.282-5.663,4.485-8.05,1.261 c-1.196-1.615-0.998-6.114-1.285-7.966c-0.764-4.92-1.623-10.487-5.344-14.169c-6.413-6.347-14.3-3.116-18.915,3.308 c-2.22,3.09-3.951,9.5-7.163,11.595c-6.344,4.138-6.725-7.253-7.569-11.03c-3.543-15.865-18.949-9.376-26.703,0.828 C12.771,351.634,12.883,348.049,13.557,344.416z M102.81,326.444c4.395,2.087,9.955,0.328,14.039-1.643 c2.408-1.162,6.609-3.447,8.543-6.311c2.325,0.867,4.613,1.871,6.879,2.948c-6.617,5.83-11.793,17.795-1.273,21.46 c5.28,1.84,10.642-1.5,13.999-5.415c1-1.168,2.626-3.466,3.784-5.935c2.296,1.727,4.539,3.602,6.753,5.539 c-3.654,6.175-5.666,16.072,1.033,20.08c4.888,2.925,10.454-0.594,13.417-5.149c4.472,5.448,8.547,11.277,12.014,17.398 c-0.09,0.105-0.182,0.205-0.265,0.33c-1.065,1.656-2.224,3.244-3.476,4.765c-3.456,0.267-5.211-1.05-5.267-3.95 c-1.121-1.342-1.699-3.684-2.956-5.205c-0.637-0.771-1.877-0.779-2.688-0.347c-3.284,1.747-5.206,4.982-8.239,6.856 c-9.097,5.62-8.08-4.039-8.539-9.015c-0.481-5.22-3.136-10.566-9.157-10.299c-7.482,0.332-18.584,17.892-22.227,3.216 c-1.584-6.378,3.422-13.839-1.343-19.924c-4.554-5.816-11.272-2.334-16.195,0.918c-3.108,2.053-7.946,6.883-11.836,0.868 c-0.753-1.165-0.416-3.958-0.66-5.305c-0.515-2.851-1.151-5.889-3.657-7.735c-5.654-4.165-13.068,1.991-18.845,2.663 c-9.262,1.078-6.44-5.961-1.805-9.976c12.576-3.657,25.671-5.073,38.483-3.831C98.609,317.182,96.015,323.217,102.81,326.444z M107.083,313.89c4.511,0.627,8.973,1.598,13.356,2.93c-0.502,0.556-1.017,1.099-1.598,1.564c-2.623,2.1-5.802,3.773-9.084,4.53 c-3.215,0.742-8.767,0.269-7.076-4.456C103.337,316.624,105.102,315.024,107.083,313.89z M134.9,322.71 c0.064,0.034,0.131,0.06,0.195,0.094c3.043,1.603,6.066,3.439,9.05,5.451c-0.444,1.274-1.041,2.475-1.776,3.631 c-1.725,2.716-4.779,6.426-8.322,6.496c-4.873,0.097-5.333-4.712-4.046-8.258C130.992,327.393,132.685,324.706,134.9,322.71z M157.942,339.215c2.652,2.447,5.208,5.056,7.681,7.768c-0.175,1.23-0.611,2.394-1.803,3.762c-1.938,2.224-4.661,2.986-6.473,0.143 C155.403,347.839,156.325,342.951,157.942,339.215z M41.351,399.128c-2.42-1.966-4.811-4.079-7.123-6.31 c0.323-2.617,1.334-5.248,2.406-7.036c2.961-4.936,6.431-3.778,9.479,0.213c2.701,3.537,3.435,8.027,7.624,10.385 c3.327,1.874,6.892,1.59,10.18-0.267c0.729-0.412,1.335-1.395,2.118-1.639c0.504-0.445,1.008-0.89,1.511-1.334l7.275,4.492 c0.627,1.372-0.454,5.627,0.056,7.542c0.436,1.638,2.186,2.557,3.795,2.155c2.47-0.618,4.633-2.18,7.017-2.798 c3.513-2.618,6.59-1.049,9.23,4.709c-0.324,1.413-0.564,2.84-0.72,4.28c-0.116,3.167,0.394,6.398,3.577,7.97 c2.801,1.383,5.681,0.151,8.374-0.749c5.427-1.814,5.444-2.726,8.247,2.542c0.659,1.237,0.624,2.742,1.748,3.887 c2.493,2.541,5.541,1.875,8.546,0.896c3.276-1.068,4.94-3.482,8.486-1.098c0.864,0.581,1.453,3.397,2.483,4.267 c2.859,2.412,6.464,1.803,9.68,0.645c5.056-1.823,9.922-8.345,13.779,1.725c0.373,0.974,0.475,2.116,0.539,3.295 C118.306,439.444,72.274,424.24,41.351,399.128z M192.29,430.471c-3.799,1.388-7.674,2.569-11.636,3.475 c-4.723,1.08-9.57,1.865-14.495,2.401c-0.263-4.578-0.765-9.301-4.379-12.367c-4.196-3.56-9.015-2.997-13.74-0.881 c-2.389,1.07-3.544,2.54-6.32,2.171c-4.46-0.593-0.934-0.392-3.306-2.397c-1.821-1.539-2.327-3.12-4.905-3.766 c-1.954-0.489-3.869,0.076-5.716,0.645c-1.083,0.333-3.176,1.969-4.376,1.97c-3.523,0.003-1.521-0.356-2.863-2.449 c-2.369-3.698-2.346-7.1-8.231-7.047c-2.763,0.025-4.996,1.99-7.585,2.407c-2.677,0.431-2.972,1.719-3.993-1.458 c-0.343-1.066,0.816-3.887,0.87-4.9c0.257-4.853-1.395-9.56-6.243-11.553c-5.593-2.3-10.277,1.258-15.222,3.496 C79.343,393.426,80.386,384.1,69.905,386c-5.046,0.915-8.808,8.719-14.671,4.662c-3.417-2.365-4.218-8.27-7.087-11.306 c-7.482-7.918-15.597,0.245-17.832,9.479c-6.772-7.3-12.451-15.691-15.34-24.735c1.961-4.65,6.707-9.393,9.614-11.152 c6.92-4.186,8.328,0.471,9.341,6.08c1.143,6.322,3.485,14.369,11.394,14.582c7.382,0.198,10.73-8.242,13.973-13.419 c3.648-5.824,8.402-8.788,12.129-0.491c2.125,4.731,1.739,10.246,3.441,15.099c2.863,8.16,9.286,7.111,15.789,3.297 c2.945-1.727,8.147-6.234,10.694-1.022c0.9,1.843-0.14,6.253-0.257,8.246c-0.252,4.284-0.712,9.053,3.699,11.429 c4.592,2.474,8.173-0.756,12.581-1.481c7.519-1.237,8.248,6.368,10.694,11.584c2.965,6.326,7.789,11.115,15.015,7.654 c4.536-2.173,6.398-6.14,8.521-10.413c4.667-9.397,9.363-0.259,14.689,3.296c3.859,2.576,7.738,2.856,11.75,0.408 c4.517-2.756,8.436-13.731,14.076-13.806C195.23,406.119,195.643,418.563,192.29,430.471z M294.742,351.783 c-18.014,15.998-35.452,32.717-53.817,48.31c-10.678,9.067-22.297,17.717-34.884,24.276c5.973-43.637-27.079-90.121-65.41-107.934 c-40.94-19.026-92.115-7.716-125.458,22.009c0.353-0.995,0.733-1.991,1.175-2.99c4.634-10.471,12.133-19.447,18.84-28.682 c18.056-15.919,39.307-28.422,60.859-38.629c32.91-15.586,68.186-26.98,104-33.548c35.912-6.586,73.301-8.082,109.298-1.253 c29.797,5.653,54.066,18.111,75.563,38.324C355.228,298.786,324.801,325.088,294.742,351.783z M500.254,144.315 c-0.95,18.621-21.334,34.273-33.338,46.468c-18.232,18.523-35.881,37.497-54.708,55.447c-6.11,5.826-12.283,11.583-18.48,17.314 c-34.801-36.852-93.218-45.018-141.301-43.192c-58.368,2.216-117.955,19.569-169.341,47.207 c-13.443,7.23-26.232,15.338-37.828,24.815c5.862-8.411,11.83-16.722,18.548-24.537c20.188-17.822,41.856-34.055,63.771-49.632 c41.914-29.792,83.73-59.535,127.985-85.805c22.222-13.191,44.657-26.435,67.802-37.954c21.623-10.761,45.765-20.781,70.406-18.001 c22.77,2.569,44.712,12.064,64.528,23.175C474.086,108.471,501.346,122.893,500.254,144.315z"></path><path d="M358.291,176.791c-31.151,0.109-63.017-0.71-93.736,5.218c-30.726,5.93-60.15,15.806-89.08,27.578 c-1.484,0.603-0.859,3.039,0.673,2.444c27.818-10.801,57.152-18.129,86.467-23.531c31.793-5.858,63.617-3.537,95.676-5.465 C362.269,182.798,362.346,176.777,358.291,176.791z"></path><path d="M391.118,146.8c-51.213-2.603-103.722,1.447-152.862,16.531c-1.446,0.444-0.851,2.629,0.626,2.27 c50.201-12.231,101.043-11.696,152.236-14.365C393.968,151.087,393.975,146.946,391.118,146.8z"></path><path d="M438.063,116.905c-43.73-10.854-93.984-5.116-136.121,9.606c-1.578,0.551-0.955,2.969,0.698,2.531 c44.387-11.755,89.446-12.245,134.821-7.692C440.021,121.607,440.502,117.511,438.063,116.905z"></path><path d="M277.189,256.958c-27.011-3.064-55.559,2.209-81.923,7.86c-25.647,5.497-53.124,10.331-77.219,20.899 c-1.625,0.713-0.452,3.555,1.221,2.895c23.828-9.393,50.713-13.074,75.767-18.112c27.306-5.491,54.43-7.559,82.154-9.288 C279.97,261.039,279.875,257.263,277.189,256.958z"></path><path d="M248.223,297.758c-25.905,0.093-53.907,0.587-78.536,9.367c-1.49,0.531-0.906,2.824,0.662,2.401 c25.734-6.954,52.588-2.434,78.374-8.079C250.813,300.99,250.318,297.75,248.223,297.758z"></path><path d="M43.126,346.337c0.852,0.763,2.265,0.893,3.233,0.327c1.286-0.752,1.724-2.461,0.982-3.746 c-0.612-1.061-1.624-1.585-2.838-1.584c-1.468,0.002-2.716,1.247-2.716,2.715C41.787,345.079,42.335,345.877,43.126,346.337z"></path><path d="M46.499,337.214c0.153,0.041,0.303,0.07,0.46,0.095c1.178,0.184,2.346-0.123,2.985-1.215 c0.614-1.05,0.373-2.323-0.413-3.203c-0.105-0.118-0.209-0.234-0.307-0.357c-1.146-1.442-3.563-0.859-4.397,0.566 C43.924,334.642,44.749,336.748,46.499,337.214z"></path><path d="M59.859,342.671c1.631-1.381,1.161-3.99-0.543-5.038c-1.095-0.674-2.958-0.554-3.824,0.494 c-0.027,0.032-0.053,0.064-0.08,0.097c-1.047,1.266-1.332,3.225,0,4.448C56.753,343.902,58.515,343.809,59.859,342.671z"></path><path d="M71.741,340.754c0.131-0.012,0.257-0.041,0.38-0.088c1.798-0.548,3.089-2.896,1.879-4.617 c-0.596-0.847-1.24-1.445-2.258-1.709c-2.09-0.541-4.21,1.032-4.21,3.207c0,0.853,0.371,1.749,0.974,2.352 C69.415,340.808,70.532,340.946,71.741,340.754z"></path><path d="M81.082,351.366c0.635,0.263,1.541,0.221,2.196,0.027c1.649-0.487,2.763-2.272,2.257-3.975 c-0.208-0.702-0.563-1.322-1.089-1.833c-1.598-1.55-4.299-1.235-5.432,0.7c-0.453,0.775-0.587,1.8-0.348,2.665 C79.018,350.225,79.927,350.888,81.082,351.366z"></path><path d="M82.902,361.907c-0.304,2.262,1.39,4.02,3.6,4.153c2.028,0.122,4.286-1.555,4.092-3.759 c-0.143-1.613-0.955-2.578-2.415-3.172c-0.233-0.095-0.47-0.175-0.702-0.271C85.406,358.003,83.161,359.974,82.902,361.907z"></path><path d="M101.061,359.22c2.182-1.504,2.356-4.617,0-6.086c-0.422-0.263-0.883-0.475-1.366-0.595 c-2.987-0.747-5.767,2.552-4.084,5.312C96.714,359.659,99.223,360.487,101.061,359.22z"></path><path d="M121.5,379.853c0.012-0.04,0.024-0.08,0.035-0.12c0.759-2.573-1.869-5.503-4.551-4.552 c-0.039,0.014-0.077,0.027-0.115,0.041c-2.614,0.927-3.775,4.178-1.661,6.292C117.239,383.546,120.702,382.556,121.5,379.853z"></path><path d="M130.42,378.567c0.044,0.034,0.104,0.081,0.132,0.103c1.257,0.912,2.927,0.752,4.107-0.293 c2.272-2.013,0.942-5.691-1.852-6.309c-1.776-0.393-3.854,0.535-4.287,2.434C128.134,376.2,128.907,377.833,130.42,378.567z"></path><path d="M134.133,391.614c0.075,1.672,1.131,3.253,2.809,3.69c1.163,0.303,2.266,0.171,3.307-0.419 c1.892-1.073,2.09-3.227,1.322-5.044c-0.024-0.057-0.048-0.114-0.072-0.17c-0.708-1.676-2.824-2.026-4.368-1.778 c-0.063,0.01-0.125,0.02-0.189,0.03C135.367,388.177,134.064,390.078,134.133,391.614z"></path><path d="M162.948,387.853c0.185,0.249,0.398,0.48,0.624,0.698c0.005,0.006,0.011,0.011,0.016,0.016 c0.127,0.122,0.26,0.237,0.398,0.345c0.054,0.042,0.1,0.095,0.156,0.134c0.008,0.006,0.016,0.011,0.024,0.017 c0.024,0.017,0.053,0.026,0.078,0.042c0.881,0.595,1.94,0.865,3.043,0.451c1.621-0.608,2.807-2.188,2.271-4 c-0.812-2.749-3.98-3.561-6.089-1.735c-1.279,1.107-1.185,2.779-0.41,4.045C163.022,387.862,162.985,387.857,162.948,387.853z"></path></svg>